# xmcd
#
# Track frame offsets: 
#        150
#        44439
#        94383
#        139960
#        167843
#        189186
#        205344
#        245032
#        273831
#        293759
#        309744
#
# Disc length: 4440 seconds
#
# Revision: 1
# Processed by: cddbd v1.5.2PL0 Copyright (c) Steve Scherf et al.
# Submitted via: ExactAudioCopy v0.99pb5
#
DISCID=a711560b
DTITLE=Di Blasio, Raúl - Los Esenciales
DYEAR=2003
DGENRE=Instrumental
TTITLE0=Selección Especial 1
TTITLE1=Selección Especial 2
TTITLE2=Selección Especial 3
TTITLE3=Adiós Nonino
TTITLE4=Para Vivir
TTITLE5=Canción Con Todos
TTITLE6=Selección De Temas
TTITLE7=Gracias A La Vida
TTITLE8=Sólo Le Pido A Dios
TTITLE9=Era En Abril
TTITLE10=Unicornio
EXTD=
EXTT0=
EXTT1=
EXTT2=
EXTT3=
EXTT4=
EXTT5=
EXTT6=
EXTT7=
EXTT8=
EXTT9=
EXTT10=
PLAYORDER=
